<?xml version="1.0" encoding="utf-8"?>
<!-- Generator: Adobe Illustrator 26.2.1, SVG Export Plug-In . SVG Version: 6.00 Build 0)  -->
<svg version="1.1" id="レイヤー_1" xmlns="http://www.w3.org/2000/svg" xmlns:xlink="http://www.w3.org/1999/xlink" x="0px"
	 y="0px" viewBox="0 0 841.5 113.7" style="enable-background:new 0 0 841.5 113.7;" xml:space="preserve">
<style type="text/css">
	.st0{fill:#FFFFFF;}
</style>
<g>
	<g>
		<path class="st0" d="M87.7,11.5c-1.4,2.2-2,3.5-4.1,8.4c-7.5,18-12.3,27.5-17.8,35.4C76.3,64,83.2,70.5,93.7,81.7l-9.9,10.6
			C77.5,84,70.1,76.4,58.2,65.9C52.8,73.2,45.9,80.6,38,87.7c-8.8,7.7-16.5,13.1-29,20.1c-2.8-5.1-4.4-6.9-9-10.7
			c20.1-9.9,34.9-22,48.3-39.4c-10.1-8.3-22.2-16.4-33-22.2l9-9.1c8.9,5.3,14.4,8.9,20.2,13.1l11,7.8c5.2-8.5,9.6-17.3,13.7-27.7
			c3-7,3.6-9.3,4.3-13L87.7,11.5z"/>
	</g>
	<g>
		<path class="st0" d="M168.7,4.8c-1.4,2.2-1.4,2.2-4,7.5c-1.6,3.3-2.5,4.9-3.3,6.2c0.7,0,2.5-0.1,5.1-0.2l29.4-0.4
			c4.2,0,6.7-0.4,9.4-1.2l7.2,7.2c-1.5,2-1.7,2.7-3.7,8.1c-4.2,11.4-10.7,25.4-16.2,34.1c-12.5,19.9-29.4,34-55.6,46.1
			c-3.2-5.4-4.6-7.3-8.5-10.7c10.6-4.2,16.9-7.5,24.7-12.7c9-6.1,14.4-10.7,20.6-18.2c-8.8-7.7-16.8-13.5-26.3-18.6l8-9
			c10.4,5.9,16.2,9.9,25.8,17.7c6.2-9.6,11.2-20.1,14.9-31.4l-40.1,0.4c-8.6,13.2-17,22.7-29,32.6c-3.5-3.8-4.9-5.1-10.4-8.3
			c13.3-9.9,23.5-21.2,31.2-35.3c3.7-6.7,6.2-12.5,7.2-16.9L168.7,4.8z"/>
	</g>
	<g>
		<path class="st0" d="M302.9,30.3V19.1c0-8,0-9.6-0.5-12.6h13.3c-0.4,3-0.4,3.7-0.5,8.3c0,4.8,0,4.9,0,15.4h8.9
			c8.1,0,10.9-0.1,15.4-0.9v12.8c-4.2-0.5-7.7-0.6-15.2-0.6h-9.3c-0.4,16.7-0.4,16.7-0.9,21.4c-1.7,15.3-7,25.8-17.7,34.7
			c-6.4,5.4-12.2,8.6-23.2,12.5c-2-4.4-3.3-6.3-7.8-10.9c11.1-3.3,17.4-6.4,23.6-11.9c8.4-7.4,12-15.6,13.1-30.1
			c0.2-3.3,0.4-7.7,0.5-15.7h-34.2v14.6c0,6.4,0.2,11.9,0.6,14.9h-13.8c0.4-4,0.6-8.8,0.6-14.6V41.6h-8.8c-7.3,0-10.1,0.1-15.2,0.6
			V29.4c5.1,0.7,7.5,0.9,15.4,0.9h8.5V18.9c0-4.3-0.2-9.9-0.6-12.5h14c-0.5,3.6-0.7,7.9-0.7,12.3v11.5H302.9z"/>
	</g>
	<g>
		<path class="st0" d="M378.3,95.9v8.5h-13.5c0.4-3.3,0.6-7.8,0.6-15.1V27.9c0-6.3-0.1-9.4-0.6-12.8c6.1,0.4,8.4,0.5,15.3,0.5h58.5
			c7.4,0,10.5-0.1,14.9-0.6c-0.4,3.3-0.5,6.8-0.5,13v61.4c0,8.1,0.1,12,0.5,15.2h-13.3v-8.5H378.3z M440.3,27.2h-62v57.2h62V27.2z"
			/>
	</g>
	<g>
		<path class="st0" d="M483.8,91c10-0.4,24.9-4.2,36.3-9.3c15.4-6.8,27-16.2,36.8-30c5.6-8.1,9.1-14.8,13-24.9
			c4.1,5.1,5.7,6.5,10.7,10.1c-10.2,22.3-21.9,36.7-38.5,47.9c-12.5,8.5-27.8,14.6-46.7,18.5c-4.7,1-5.2,1.1-7.8,2L483.8,91z
			 M493.1,14.4c14.1,8.8,21.9,14.7,31.1,23.6l-8.9,11c-9.5-10.1-19.5-18.2-30.7-24.7L493.1,14.4z"/>
	</g>
	<g>
		<path class="st0" d="M692.8,63c-1.7,1.7-2.6,2.7-4.7,5.1c-9.5,11-13.7,14.9-22.8,21.5c13.6,6.8,25.6,10,46.2,12.7
			c-2.3,3.6-4.1,7-5.6,11.5c-15.4-2.5-23.6-4.6-33.7-8.8c-6.2-2.5-11.9-5.3-17.2-8.8c-14.1,8.1-29.5,13.7-49.4,17.5
			c-1.6-4.6-2.8-7-5.8-11c17.7-2.2,32.5-6.7,45.7-13.3c-8.5-7-12.3-11.4-20.7-24.1c-3.1,0.1-5.1,0.2-7.4,0.5V55.1
			c3.3,0.4,7.4,0.6,12.6,0.6h45.2c5.1,0,8.3-0.1,10.7-0.6L692.8,63z M624.1,34.3c-1.6-4.8-3.5-9.6-5.9-14.3c-3,0.1-4.8,0.1-9.4,0.1
			c-1-4.7-1.5-5.9-3.8-10.4c3.3,0.1,5.9,0.1,7.5,0.1c34,0,68.9-4.1,83-9.6l7.3,10c-2,0.4-2.3,0.5-5.2,1.1
			c-4.9,1.2-11.4,2.5-17.9,3.6c-1.6,0.2-9.3,1.1-23,2.6c2.3,5.8,3.6,9.4,5.6,16.8h12c4.3-7.5,6.7-12.7,9.1-19.9l11.2,3.7
			c-1.2,2.3-1.2,2.3-4.8,9.5c-1.4,2.6-2.3,4.4-3.7,6.7h9.1c6.7,0,10.1-0.1,13.6-0.5c-0.4,3-0.5,5.9-0.5,9.9v8.6
			c0,3.2,0.2,6.1,0.6,8.6h-11.5V44.7h-84.6v16.8h-11.5c0.4-2.6,0.6-5.9,0.6-9.1v-8.6c0-3.5-0.1-6.3-0.5-10c3.7,0.5,7.4,0.6,14.2,0.6
			H624.1z M651.4,34.3c-1.7-6.2-3.2-10.5-5.7-15.8c-0.9,0.1-6.4,0.4-16.4,1c2.2,4.6,4.3,9.6,6.1,14.8H651.4z M636.9,65.2
			c5.9,8.8,10.1,13,18.4,18.5c9-5.8,14.2-10.5,20.9-18.5H636.9z"/>
	</g>
	<g>
		<path class="st0" d="M758.1,98.9c0,5.7,0.1,10.2,0.6,14.8h-12.6c0.5-4.4,0.7-8.6,0.7-14.8V60.5c0-5.9,0.1-9.3,0.4-14.3
			c-4.1,6.7-6.2,9.6-12,16.1c-2.1-5.2-3.1-6.8-6.3-11.1c10.1-10.2,17.4-21.2,23.7-35.6c3-7,4.6-11.5,5.2-15.6L770,3.3
			c-0.6,1.2-1.6,3.5-2.5,5.8c-2,5.3-5.3,12.6-9.4,20.6V98.9z M825,98.4c0,10.4-3,12.7-16.3,12.7c-5.9,0-8.8-0.1-14.7-0.6
			c-0.5-4.7-1.2-7.2-3.2-11.7c7.3,1.1,10.9,1.5,16.4,1.5c5.6,0,6.7-0.5,6.7-3.2V39.1h-35.8c-5.1,0-10.2,0.2-14,0.7V28.2
			c3.6,0.5,8,0.7,13.6,0.7h36.2V16.7c0-5.8-0.2-11.1-0.9-14.9h12.7c-0.5,4.3-0.7,8.8-0.7,14.9v12.2h4.6c5.2,0,8.9-0.2,11.9-0.7v11.5
			c-3.6-0.4-7.4-0.5-11.6-0.5H825V98.4z M779.8,48.5c8.8,10.2,13.2,16.7,19.8,28.4l-9.6,7c-5.9-12.2-11.4-20.6-19.1-29.5L779.8,48.5
			z"/>
	</g>
</g>
</svg>
